<?xml version="1.0"?>
<svg width="26" height="26" xmlns="http://www.w3.org/2000/svg">

 <g>
  <title>background</title>
  <rect fill="none" id="canvas_background" height="28" width="28" y="-1" x="-1"/>
 </g>
 <g>
  <title>Layer 1</title>
  <g stroke="null" id="svg_1">
   <g stroke="null" id="svg_2">
    <polygon stroke-width="0" stroke="null" id="svg_3" points="5.347921386361122,13.00000286102295 2.7973094135522842,17.417951583862305 5.347921386361122,21.835905075073242 7.898530974984169,17.417951583862305 " fill="#303F9F"/>
    <polygon stroke-width="0" stroke="null" id="svg_4" points="20.652263656258583,4.164094924926758 18.101535812020302,8.582046508789062 20.652263656258583,13.00000286102295 23.20287896692753,8.582046508789062 " fill="#3F51B5"/>
    <polygon stroke-width="0" stroke="null" id="svg_5" points="23.20287896692753,8.582046508789062 15.550677314400673,21.835905075073242 20.652263656258583,21.835905075073242 25.753486648201942,13.00000286102295 " fill="#7986CB"/>
    <polygon stroke-width="0" stroke="null" id="svg_6" points="15.550677314400673,4.164094924926758 5.347921386361122,21.835905075073242 10.449514403939247,21.835905075073242 20.652263656258583,4.164094924926758 " fill="#FF4081"/>
    <polygon stroke-width="0" stroke="null" id="svg_7" points="5.347921386361122,4.164094924926758 0.24651336669921875,13.00000286102295 2.7973094135522842,17.417951583862305 10.449514403939247,4.164094924926758 " fill="#536DFE"/>
    <polygon stroke-width="0" stroke="null" id="svg_8" points="15.550677314400673,4.164094924926758 18.101535812020302,8.582046508789062 20.652263656258583,4.164094924926758 " fill-opacity="0.2" fill="#FFFFFF"/>
    <polygon stroke-width="0" stroke="null" id="svg_9" points="13.000125899910927,8.582046508789062 15.550677314400673,4.164094924926758 18.101535812020302,8.582046508789062 " fill-opacity="0.1" fill="#FFFFFF"/>
    <polygon stroke-width="0" stroke="null" id="svg_10" points="13.000125899910927,8.582046508789062 15.550677314400673,13.00000286102295 18.101535812020302,8.582046508789062 " fill-opacity="0" fill="#FFFFFF"/>
    <polygon stroke-width="0" stroke="null" id="svg_11" points="10.449514403939247,13.00000286102295 13.000125899910927,8.582046508789062 15.550677314400673,13.00000286102295 " fill-opacity="0.1"/>
    <polygon stroke-width="0" stroke="null" id="svg_12" points="10.449514403939247,13.00000286102295 13.000125899910927,17.417951583862305 15.550677314400673,13.00000286102295 " fill-opacity="0.2"/>
    <polygon stroke-width="0" stroke="null" id="svg_13" points="7.898656859993935,17.417951583862305 10.449514403939247,13.00000286102295 13.000125899910927,17.417951583862305 " fill-opacity="0.3"/>
    <polygon stroke-width="0" stroke="null" id="svg_14" points="7.898656859993935,17.417951583862305 10.449514403939247,21.835905075073242 13.000125899910927,17.417951583862305 " fill-opacity="0.4"/>
    <polygon stroke-width="0" stroke="null" id="svg_15" points="5.347921386361122,21.835905075073242 7.898656859993935,17.417951583862305 10.449514403939247,21.835905075073242 " fill-opacity="0.5"/>
    <polygon stroke-width="0" stroke="null" id="svg_16" points="5.347921386361122,4.164094924926758 7.898656859993935,8.582046508789062 10.449514403939247,4.164094924926758 " fill-opacity="0.2" fill="#FFFFFF"/>
    <polygon stroke-width="0" stroke="null" id="svg_17" points="2.7973094135522842,8.582046508789062 5.347921386361122,4.164094924926758 7.898656859993935,8.582046508789062 " fill-opacity="0.1" fill="#FFFFFF"/>
    <polygon stroke-width="0" stroke="null" id="svg_18" points="2.7973094135522842,8.582046508789062 5.347921386361122,13.00000286102295 7.898656859993935,8.582046508789062 " fill-opacity="0" fill="#FFFFFF"/>
    <polygon stroke-width="0" stroke="null" id="svg_19" points="0.24663808941841125,13.00000286102295 2.7973094135522842,8.582046508789062 5.347921386361122,13.00000286102295 " fill-opacity="0.1"/>
    <polygon stroke-width="0" stroke="null" id="svg_20" points="0.24663808941841125,13.00000286102295 2.7973094135522842,17.417951583862305 5.347921386361122,13.00000286102295 " fill-opacity="0.2"/>
    <polygon stroke-width="0" stroke="null" id="svg_21" points="7.898656859993935,17.417951583862305 5.347921386361122,13.00000286102295 2.7973094135522842,17.417951583862305 " fill-opacity="0" fill="#FFFFFF"/>
    <polygon stroke-width="0" stroke="null" id="svg_22" points="7.898656859993935,17.417951583862305 5.347921386361122,21.835905075073242 2.7973094135522842,17.417951583862305 " fill-opacity="0.2"/>
    <polygon stroke-width="0" stroke="null" id="svg_23" points="23.20287896692753,8.582046508789062 20.652263656258583,4.164094924926758 18.101535812020302,8.582046508789062 " fill-opacity="0.2"/>
    <polygon stroke-width="0" stroke="null" id="svg_24" points="23.20287896692753,8.582046508789062 20.652263656258583,13.00000286102295 18.101535812020302,8.582046508789062 " fill-opacity="0" fill="#FFFFFF"/>
    <g stroke="null" id="svg_25">
     <polygon stroke-width="0" stroke="null" id="svg_26" points="20.652263656258583,13.00000286102295 23.20287896692753,8.582046508789062 25.753486648201942,13.00000286102295 " fill-opacity="0.2" fill="#FFFFFF"/>
     <polygon stroke-width="0" stroke="null" id="svg_27" points="20.652263656258583,13.00000286102295 23.20287896692753,17.417951583862305 25.753486648201942,13.00000286102295 " fill-opacity="0.1" fill="#FFFFFF"/>
     <polygon stroke-width="0" stroke="null" id="svg_28" points="18.101535812020302,17.417951583862305 20.652263656258583,13.00000286102295 23.20287896692753,17.417951583862305 " fill-opacity="0" fill="#FFFFFF"/>
     <polygon stroke-width="0" stroke="null" id="svg_29" points="18.101535812020302,17.417951583862305 20.652263656258583,21.835905075073242 23.20287896692753,17.417951583862305 " fill-opacity="0.1"/>
     <polygon stroke-width="0" stroke="null" id="svg_30" points="15.550677314400673,21.835905075073242 18.101535812020302,17.417951583862305 20.652263656258583,21.835905075073242 " fill-opacity="0.2"/>
    </g>
   </g>
  </g>
  <g id="svg_32" display="none">
   <g id="svg_33" display="inline">
    <polygon id="svg_34" points="84.157,143 42.878,214.5 84.157,286 166.721,286   " fill="#303F9F"/>
    <polygon id="svg_35" points="331.842,0 249.278,0 331.842,143 373.121,71.5   " fill="#3F51B5"/>
    <polygon id="svg_36" points="373.121,71.5 249.278,286 331.842,286 414.4,143   " fill="#7986CB"/>
    <polygon id="svg_37" points="84.157,0 1.596,143 42.878,214.5 166.721,0   " fill="#536DFE"/>
    <polygon id="svg_38" points="249.278,0 290.561,71.5 331.842,0   " fill-opacity="0.5"/>
    <polygon id="svg_39" points="84.157,286 125.438,214.5 166.721,286   " fill-opacity="0.5"/>
    <polygon id="svg_40" points="84.157,0 125.438,71.5 166.721,0   " fill-opacity="0.2" fill="#FFFFFF"/>
    <polygon id="svg_41" points="42.878,71.5 84.157,0 125.438,71.5   " fill-opacity="0.1" fill="#FFFFFF"/>
    <polygon id="svg_42" points="42.878,71.5 84.157,143 125.438,71.5   " fill-opacity="0" fill="#FFFFFF"/>
    <polygon id="svg_43" points="1.598,143 42.878,71.5 84.157,143   " fill-opacity="0.1"/>
    <polygon id="svg_44" points="1.598,143 42.878,214.5 84.157,143   " fill-opacity="0.2"/>
    <polygon id="svg_45" points="125.438,214.5 84.157,143 42.878,214.5   " fill-opacity="0" fill="#FFFFFF"/>
    <polygon id="svg_46" points="373.121,71.5 331.842,143 290.561,71.5   " fill-opacity="0" fill="#FFFFFF"/>
    <g id="svg_47">
     <polygon id="svg_48" points="331.842,143 373.121,71.5 414.4,143    " fill-opacity="0.2" fill="#FFFFFF"/>
     <polygon id="svg_49" points="331.842,143 373.121,214.5 414.4,143    " fill-opacity="0.1" fill="#FFFFFF"/>
     <polygon id="svg_50" points="290.561,214.5 331.842,143 373.121,214.5    " fill-opacity="0" fill="#FFFFFF"/>
     <polygon id="svg_51" points="290.561,214.5 331.842,286 373.121,214.5    " fill-opacity="0.1"/>
     <polygon id="svg_52" points="249.278,286 290.561,214.5 331.842,286    " fill-opacity="0.2"/>
    </g>
    <polygon id="svg_53" points="125.438,214.5 84.157,286 42.878,214.5   " fill-opacity="0.2"/>
    <polygon id="svg_54" points="373.121,71.5 331.842,0 290.561,71.5   " fill-opacity="0.2"/>
   </g>
   <rect id="svg_55" height="416" width="416" fill="none" y="-65"/>
  </g>
  <g id="svg_56" display="none">
   <g id="svg_57" display="inline">
    <polygon id="svg_58" points="249.279,0 84.157,286 166.721,286 331.843,0   " fill="#FF4081"/>
    <polygon id="svg_59" points="249.279,0 290.558,71.5 331.843,0   " fill-opacity="0.2" fill="#FFFFFF"/>
    <polygon id="svg_60" points="208,71.5 249.279,0 290.558,71.5   " fill-opacity="0.1" fill="#FFFFFF"/>
    <polygon id="svg_61" points="208,71.5 249.279,143 290.558,71.5   " fill-opacity="0" fill="#FFFFFF"/>
    <polygon id="svg_62" points="166.721,143 208,214.5 249.279,143   " fill-opacity="0.2"/>
    <polygon id="svg_63" points="125.439,214.5 166.721,143 208,214.5   " fill-opacity="0.3"/>
    <polygon id="svg_64" points="125.439,214.5 166.721,286 208,214.5   " fill-opacity="0.4"/>
    <polygon id="svg_65" points="84.157,286 125.439,214.5 166.721,286   " fill-opacity="0.5"/>
    <polygon id="svg_66" points="166.721,143 208,71.5 249.279,143   " fill-opacity="0.1"/>
   </g>
   <g id="svg_67" display="inline">
    <polygon id="svg_68" points="331.84,0 166.718,286 249.279,286 373.121,71.5   " fill="#FF4081"/>
    <polygon id="svg_69" points="290.558,71.5 331.84,0 373.121,71.5   " fill-opacity="0.1" fill="#FFFFFF"/>
    <polygon id="svg_70" points="290.558,71.5 331.84,143 373.121,71.5   " fill-opacity="0" fill="#FFFFFF"/>
    <polygon id="svg_71" points="249.279,143 290.558,214.5 331.84,143   " fill-opacity="0.2"/>
    <polygon id="svg_72" points="208,214.5 249.279,143 290.558,214.5   " fill-opacity="0.3"/>
    <polygon id="svg_73" points="208,214.5 249.279,286 290.558,214.5   " fill-opacity="0.4"/>
    <polygon id="svg_74" points="166.718,286 208,214.5 249.279,286   " fill-opacity="0.5"/>
    <polygon id="svg_75" points="249.279,143 290.558,71.5 331.84,143   " fill-opacity="0.1"/>
   </g>
   <g id="svg_76" display="inline">
    <polygon id="svg_77" points="166.718,0 42.878,214.5 84.16,286 249.279,0   " fill="#FF4081"/>
    <polygon id="svg_78" points="166.718,0 208,71.5 249.279,0   " fill-opacity="0.2" fill="#FFFFFF"/>
    <polygon id="svg_79" points="125.439,71.5 166.718,0 208,71.5   " fill-opacity="0.1" fill="#FFFFFF"/>
    <polygon id="svg_80" points="125.439,71.5 166.718,143 208,71.5   " fill-opacity="0" fill="#FFFFFF"/>
    <polygon id="svg_81" points="84.16,143 125.439,214.5 166.718,143   " fill-opacity="0.2"/>
    <polygon id="svg_82" points="42.878,214.5 84.16,143 125.439,214.5   " fill-opacity="0.3"/>
    <polygon id="svg_83" points="42.878,214.5 84.16,286 125.439,214.5   " fill-opacity="0.4"/>
    <polygon id="svg_84" points="84.16,143 125.439,71.5 166.718,143   " fill-opacity="0.1"/>
   </g>
   <rect id="svg_85" height="416" width="416" fill="none" y="-65"/>
   <g id="svg_86" display="inline">
    <polygon id="svg_87" points="84.157,143 42.878,214.5 84.157,286 166.721,286   " fill="#303F9F"/>
    <polygon id="svg_88" points="331.843,0 249.279,0 331.843,143 373.121,71.5   " fill="#3F51B5"/>
    <polygon id="svg_89" points="373.121,71.5 249.279,286 331.843,286 414.4,143   " fill="#7986CB"/>
    <polygon id="svg_90" points="84.157,0 1.597,143 42.878,214.5 166.721,0   " fill="#536DFE"/>
    <polygon id="svg_91" points="249.279,0 290.558,71.5 331.843,0   " fill-opacity="0.5"/>
    <polygon id="svg_92" points="84.157,286 125.439,214.5 166.721,286   " fill-opacity="0.5"/>
    <polygon id="svg_93" points="84.157,0 125.439,71.5 166.721,0   " fill-opacity="0.2" fill="#FFFFFF"/>
    <polygon id="svg_94" points="42.878,71.5 84.157,0 125.439,71.5   " fill-opacity="0.1" fill="#FFFFFF"/>
    <polygon id="svg_95" points="42.878,71.5 84.157,143 125.439,71.5   " fill-opacity="0" fill="#FFFFFF"/>
    <polygon id="svg_96" points="1.6,143 42.878,71.5 84.157,143   " fill-opacity="0.1"/>
    <polygon id="svg_97" points="1.6,143 42.878,214.5 84.157,143   " fill-opacity="0.2"/>
    <polygon id="svg_98" points="125.439,214.5 84.157,143 42.878,214.5   " fill-opacity="0" fill="#FFFFFF"/>
    <polygon id="svg_99" points="373.121,71.5 331.843,143 290.558,71.5   " fill-opacity="0" fill="#FFFFFF"/>
    <g id="svg_100">
     <polygon id="svg_101" points="331.843,143 373.121,71.5 414.4,143    " fill-opacity="0.2" fill="#FFFFFF"/>
     <polygon id="svg_102" points="331.843,143 373.121,214.5 414.4,143    " fill-opacity="0.1" fill="#FFFFFF"/>
     <polygon id="svg_103" points="290.558,214.5 331.843,143 373.121,214.5    " fill-opacity="0" fill="#FFFFFF"/>
     <polygon id="svg_104" points="290.558,214.5 331.843,286 373.121,214.5    " fill-opacity="0.1"/>
     <polygon id="svg_105" points="249.279,286 290.558,214.5 331.843,286    " fill-opacity="0.2"/>
    </g>
    <polygon id="svg_106" points="125.439,214.5 84.157,286 42.878,214.5   " fill-opacity="0.2"/>
    <polygon id="svg_107" points="373.121,71.5 331.843,0 290.558,71.5   " fill-opacity="0.2"/>
   </g>
  </g>
  <g id="svg_108" display="none">
   <g id="svg_109" display="inline">
    <polygon id="svg_110" points="249.279,0 84.157,286 166.721,286 331.843,0   " fill="#9F499B"/>
    <polygon id="svg_111" points="249.279,0 290.558,71.5 331.843,0   " fill-opacity="0.2" fill="#FFFFFF"/>
    <polygon id="svg_112" points="208,71.5 249.279,0 290.558,71.5   " fill-opacity="0.1" fill="#FFFFFF"/>
    <polygon id="svg_113" points="208,71.5 249.279,143 290.558,71.5   " fill-opacity="0" fill="#FFFFFF"/>
    <polygon id="svg_114" points="166.721,143 208,214.5 249.279,143   " fill-opacity="0.2"/>
    <polygon id="svg_115" points="125.439,214.5 166.721,143 208,214.5   " fill-opacity="0.3"/>
    <polygon id="svg_116" points="125.439,214.5 166.721,286 208,214.5   " fill-opacity="0.4"/>
    <polygon id="svg_117" points="84.157,286 125.439,214.5 166.721,286   " fill-opacity="0.5"/>
    <polygon id="svg_118" points="166.721,143 208,71.5 249.279,143   " fill-opacity="0.1"/>
   </g>
   <g id="svg_119" display="inline">
    <polygon id="svg_120" points="331.84,0 166.718,286 249.279,286 373.121,71.5   " fill="#9F499B"/>
    <polygon id="svg_121" points="290.558,71.5 331.84,0 373.121,71.5   " fill-opacity="0.1" fill="#FFFFFF"/>
    <polygon id="svg_122" points="290.558,71.5 331.84,143 373.121,71.5   " fill-opacity="0" fill="#FFFFFF"/>
    <polygon id="svg_123" points="249.279,143 290.558,214.5 331.84,143   " fill-opacity="0.2"/>
    <polygon id="svg_124" points="208,214.5 249.279,143 290.558,214.5   " fill-opacity="0.3"/>
    <polygon id="svg_125" points="208,214.5 249.279,286 290.558,214.5   " fill-opacity="0.4"/>
    <polygon id="svg_126" points="166.718,286 208,214.5 249.279,286   " fill-opacity="0.5"/>
    <polygon id="svg_127" points="249.279,143 290.558,71.5 331.84,143   " fill-opacity="0.1"/>
   </g>
   <g id="svg_128" display="inline">
    <polygon id="svg_129" points="373.121,71.5 249.279,286 331.843,286 414.4,143   " fill="#9F499B"/>
    <polygon id="svg_130" points="331.843,143 373.121,214.5 414.4,143   " fill-opacity="0.2"/>
    <polygon id="svg_131" points="290.558,214.5 331.843,143 373.121,214.5   " fill-opacity="0.3"/>
    <polygon id="svg_132" points="290.558,214.5 331.843,286 373.121,214.5   " fill-opacity="0.4"/>
    <polygon id="svg_133" points="249.279,286 290.558,214.5 331.843,286   " fill-opacity="0.5"/>
    <polygon id="svg_134" points="331.843,143 373.121,71.5 414.4,143   " fill-opacity="0.1"/>
   </g>
   <g id="svg_135" display="inline">
    <polygon id="svg_136" points="166.718,0 42.878,214.5 84.16,286 249.279,0   " fill="#9F499B"/>
    <polygon id="svg_137" points="166.718,0 208,71.5 249.279,0   " fill-opacity="0.2" fill="#FFFFFF"/>
    <polygon id="svg_138" points="125.439,71.5 166.718,0 208,71.5   " fill-opacity="0.1" fill="#FFFFFF"/>
    <polygon id="svg_139" points="125.439,71.5 166.718,143 208,71.5   " fill-opacity="0" fill="#FFFFFF"/>
    <polygon id="svg_140" points="84.16,143 125.439,214.5 166.718,143   " fill-opacity="0.2"/>
    <polygon id="svg_141" points="42.878,214.5 84.16,143 125.439,214.5   " fill-opacity="0.3"/>
    <polygon id="svg_142" points="42.878,214.5 84.16,286 125.439,214.5   " fill-opacity="0.4"/>
    <polygon id="svg_143" points="84.16,143 125.439,71.5 166.718,143   " fill-opacity="0.1"/>
   </g>
   <g id="svg_144" display="inline">
    <polygon id="svg_145" points="84.157,0 1.6,143 42.878,214.5 166.721,0   " fill="#9F499B"/>
    <polygon id="svg_146" points="84.157,0 125.439,71.5 166.721,0   " fill-opacity="0.2" fill="#FFFFFF"/>
    <polygon id="svg_147" points="42.878,71.5 84.157,0 125.439,71.5   " fill-opacity="0.1" fill="#FFFFFF"/>
    <polygon id="svg_148" points="42.878,71.5 84.157,143 125.439,71.5   " fill-opacity="0" fill="#FFFFFF"/>
    <polygon id="svg_149" points="1.6,143 42.878,214.5 84.157,143   " fill-opacity="0.2"/>
    <polygon id="svg_150" points="1.6,143 42.878,71.5 84.157,143   " fill-opacity="0.1"/>
   </g>
   <rect id="svg_151" height="416" width="416" fill="none" y="-65"/>
  </g>
 </g>
</svg>